<svg id="visual" viewBox="0 0 1500 700" width="1500" height="700" xmlns="http://www.w3.org/2000/svg" xmlns:xlink="http://www.w3.org/1999/xlink" version="1.1"><rect x="0" y="0" width="1500" height="700" fill="#FFF"></rect><defs><linearGradient id="grad1_0" x1="53.3%" y1="100%" x2="100%" y2="0%"><stop offset="7.142857142857143%" stop-color="#ffffff" stop-opacity="1"></stop><stop offset="92.85714285714285%" stop-color="#ffffff" stop-opacity="1"></stop></linearGradient></defs><defs><linearGradient id="grad2_0" x1="0%" y1="100%" x2="46.7%" y2="0%"><stop offset="7.142857142857143%" stop-color="#ffffff" stop-opacity="1"></stop><stop offset="92.85714285714285%" stop-color="#ffffff" stop-opacity="1"></stop></linearGradient></defs><g transform="translate(1500, 700)"><path d="M-175 0C-173.2 -23.5 -171.4 -47 -161.7 -67C-152 -87 -134.4 -103.5 -116.7 -116.7C-98.9 -129.8 -81.1 -139.6 -61.6 -148.7C-42.1 -157.9 -21.1 -166.5 0 -175L0 0Z" fill="#0549b6"></path></g><g transform="translate(0, 0)"><path d="M175 0C159.4 19.2 143.7 38.4 132.1 54.7C120.5 71 112.9 84.5 103.9 103.9C95 123.4 84.5 148.8 67 161.7C49.4 174.5 24.7 174.8 0 175L0 0Z" fill="#0549b6"></path></g></svg>