<svg id="visual" viewBox="0 0 1500 700" width="1500" height="700" xmlns="http://www.w3.org/2000/svg" xmlns:xlink="http://www.w3.org/1999/xlink" version="1.1"><rect x="0" y="0" width="1500" height="700" fill="#FFF"></rect><defs><linearGradient id="grad1_0" x1="53.3%" y1="100%" x2="100%" y2="0%"><stop offset="7.142857142857143%" stop-color="#ffffff" stop-opacity="1"></stop><stop offset="92.85714285714285%" stop-color="#ffffff" stop-opacity="1"></stop></linearGradient></defs><defs><linearGradient id="grad2_0" x1="0%" y1="100%" x2="46.7%" y2="0%"><stop offset="7.142857142857143%" stop-color="#ffffff" stop-opacity="1"></stop><stop offset="92.85714285714285%" stop-color="#ffffff" stop-opacity="1"></stop></linearGradient></defs><g transform="translate(1500, 700)"><path d="M-280 0C-256.8 -30.5 -233.7 -61 -218 -90.3C-202.4 -119.6 -194.2 -147.8 -178.2 -178.2C-162.1 -208.6 -138.2 -241.3 -107.2 -258.7C-76.1 -276 -38.1 -278 0 -280L0 0Z" fill="#0549b6"></path></g><g transform="translate(0, 0)"><path d="M280 0C266.6 35.6 253.2 71.2 232.8 96.4C212.5 121.7 185.2 136.6 165.5 165.5C145.7 194.4 133.5 237.3 107.2 258.7C80.8 280.1 40.4 280.1 0 280L0 0Z" fill="#0549b6"></path></g></svg>