<svg id="visual" viewBox="0 0 1000 600" width="1000" height="600" xmlns="http://www.w3.org/2000/svg" xmlns:xlink="http://www.w3.org/1999/xlink" version="1.1"><rect x="0" y="0" width="1000" height="600" fill="#FFF"></rect><defs><linearGradient id="grad1_0" x1="40%" y1="100%" x2="100%" y2="0%"><stop offset="16.666666666666664%" stop-color="#ffffff" stop-opacity="1"></stop><stop offset="83.33333333333334%" stop-color="#ffffff" stop-opacity="1"></stop></linearGradient></defs><defs><linearGradient id="grad2_0" x1="0%" y1="100%" x2="60%" y2="0%"><stop offset="16.666666666666664%" stop-color="#ffffff" stop-opacity="1"></stop><stop offset="83.33333333333334%" stop-color="#ffffff" stop-opacity="1"></stop></linearGradient></defs><g transform="translate(1000, 600)"><path d="M-145.8 0C-135.6 -15.3 -125.3 -30.7 -120.1 -49.7C-114.9 -68.8 -114.6 -91.6 -103.1 -103.1C-91.6 -114.6 -68.8 -114.9 -49.7 -120.1C-30.7 -125.3 -15.3 -135.6 0 -145.8L0 0Z" fill="#0549b6"></path></g><g transform="translate(0, 0)"><path d="M145.8 0C144.4 19.4 142.9 38.9 134.7 55.8C126.4 72.7 111.3 87.1 95.5 95.5C79.6 103.8 63.1 106.2 47.1 113.6C31 121 15.5 133.4 0 145.8L0 0Z" fill="#0549b6"></path></g></svg>