<?xml version="1.0" encoding="UTF-8" standalone="no"?>
<!DOCTYPE svg PUBLIC "-//W3C//DTD SVG 1.1//EN" "http://www.w3.org/Graphics/SVG/1.1/DTD/svg11.dtd">
<svg width="100%" height="100%" viewBox="0 0 643 305" version="1.1" xmlns="http://www.w3.org/2000/svg" xmlns:xlink="http://www.w3.org/1999/xlink" xml:space="preserve" xmlns:serif="http://www.serif.com/" style="fill-rule:evenodd;clip-rule:evenodd;stroke-linecap:round;stroke-linejoin:round;stroke-miterlimit:1.5;">
    <g transform="matrix(1,0,0,1,-582.017,-529.176)">
        <g>
            <g>
                <g transform="matrix(1.04825,0,0,1.04825,-24.6639,-36.3714)">
                    <path d="M778.98,687.989C778.98,661.936 757.829,640.785 731.776,640.785L625.963,640.785C599.91,640.785 578.759,661.936 578.759,687.989L578.759,782.397C578.759,808.45 599.91,829.601 625.963,829.601L731.776,829.601C757.829,829.601 778.98,808.45 778.98,782.397L778.98,687.989Z" style="fill:rgb(5,73,182);"/>
                </g>
                <g transform="matrix(1,0,0,1,1.53445,-8.87057)">
                    <path d="M623.111,649.656C623.111,649.656 612.766,550.012 687.728,550.812C752.613,551.505 746.032,645.854 746.032,645.854" style="fill:none;stroke:rgb(5,73,182);stroke-width:25.52px;"/>
                </g>
            </g>
            <path d="M677.571,740.428C668.312,735.948 661.889,726.198 661.889,714.903C661.889,699.368 674.04,686.756 689.007,686.756C703.974,686.756 716.126,699.368 716.126,714.903C716.126,725.742 710.21,735.158 701.551,739.86L709.79,781.827L669.809,781.827L677.571,740.428Z" style="fill:white;"/>
            <g transform="matrix(1.44549,0,0,1.44549,-593.977,-146.881)">
                <text x="993.489px" y="627.226px" style="font-family:'Poppins-Bold', 'Poppins';font-weight:700;font-size:50px;">D<tspan x="1039.39px 1063.69px 1111.34px 1135.64px 1182.04px 1220.49px " y="627.226px 627.226px 627.226px 627.226px 627.226px 627.226px ">IGIAJO</tspan></text>
            </g>
            <g transform="matrix(0.544431,0,0,0.544431,344.052,339.881)">
                <text x="923.159px" y="868.632px" style="font-family:'Poppins-Regular', 'Poppins';font-size:50px;">S<tspan x="962.059px 1005.41px 1043.01px 1083.56px 1106.46px 1132.46px 1174.01px 1202.21px 1225.11px 1252.86px 1294.41px 1334.96px 1357.86px 1383.86px 1425.41px 1453.16px 1494.71px 1522.91px " y="868.632px 868.632px 868.632px 868.632px 868.632px 868.632px 868.632px 868.632px 868.632px 868.632px 868.632px 868.632px 868.632px 868.632px 868.632px 868.632px 868.632px 868.632px ">ave for the future</tspan></text>
            </g>
        </g>
    </g>
</svg>
